<svg id="Layer_1" data-name="Layer 1" xmlns="http://www.w3.org/2000/svg" viewBox="0 0 187.49 110.38"><defs><style>.cls-1{fill:#d66965;}.cls-2{fill:#645450;}.cls-3{fill:#aa9868;}</style></defs><title>Tonys_2019</title><path class="cls-1" d="M17.53,61.85C11.43,56.28,8,49.83,8,43,8,21.69,41.4,4.44,82.66,4.44c28.44,0,53.16,8.2,65.78,20.26h4.64C140.26,10.1,112.51,0,80.34,0,36,0,0,19.22,0,42.92,0,53,6.56,62.34,17.53,69.68Z"/><polygon class="cls-2" points="39.67 36.7 39.67 76.81 31.81 76.81 31.81 36.7 17.53 36.7 17.53 29.63 53.95 29.63 53.95 36.7 39.67 36.7"/><path class="cls-2" d="M73.9,72.85a15,15,0,0,1-11.07,4.37,14.77,14.77,0,0,1-11-4.37c-3.5-3.64-4.37-8.3-4.37-14.56s.87-10.85,4.37-14.5a14.77,14.77,0,0,1,11-4.37A15,15,0,0,1,73.9,43.79c3.5,3.64,4.37,8.31,4.37,14.5s-.87,10.92-4.37,14.56M68.29,48.16A7.52,7.52,0,0,0,62.83,46a7.35,7.35,0,0,0-5.39,2.11c-2.25,2.25-2.55,6.12-2.55,10.12s.29,7.86,2.55,10.12a7.41,7.41,0,0,0,5.39,2.19,7.57,7.57,0,0,0,5.46-2.19c2.26-2.26,2.55-6.12,2.55-10.12s-.29-7.87-2.55-10.12"/><path class="cls-2" d="M106.44,76.78V54.28c0-5.75-3.28-8.23-7.43-8.23s-7.65,2.55-7.65,8.23v22.5H83.93V39.86h7.28v3.71A13.21,13.21,0,0,1,101,39.42a12.81,12.81,0,0,1,9.11,3.35c2.84,2.77,3.71,6.26,3.71,10.41v23.6Z"/><polygon class="cls-2" points="136.17 61.48 136.17 76.78 128.31 76.78 128.31 61.48 115.44 39.71 124.03 39.71 132.24 53.76 140.44 39.71 149.04 39.71 136.17 61.48"/><polygon class="cls-2" points="156.99 29.96 156.99 35.86 153.12 42.7 151.35 42.7 154.06 35.51 152.37 35.51 151.35 29.96 156.99 29.96"/><path class="cls-2" d="M166.19,77.36c-5.61,0-9.87-1.2-13.51-4.89l4.68-4.68c2.34,2.34,5.51,3.12,8.94,3.12,4.26,0,6.55-1.61,6.55-4.58a4.11,4.11,0,0,0-1.14-3.12,5.51,5.51,0,0,0-3.27-1.3L164,61.3a12.58,12.58,0,0,1-7.17-3.07A9.79,9.79,0,0,1,154.13,51c0-6.6,4.89-11.23,12.89-11.23,5.09,0,8.78,1.25,12,4.32l-4.58,4.52c-2.34-2.24-5.15-2.55-7.59-2.55-3.84,0-5.72,2.13-5.72,4.68a3.57,3.57,0,0,0,1.09,2.65,6.36,6.36,0,0,0,3.43,1.45l4.37.62c3.38.47,5.51,1.4,7.07,2.86,2,1.87,2.86,4.57,2.86,7.85,0,7.17-6,11.23-13.72,11.23"/><path class="cls-2" d="M181,73v.46h1v3.27h.51V73.51h1V73Zm6,0-1.14,2.27L184.72,73h-.51v3.73h.51V74.09l.89,1.77h.49l.89-1.77v2.69h.5V73Z"/><path class="cls-3" d="M49.2,104.25A4.11,4.11,0,0,1,48,105l-.79.28,6.7-12-.53.1a28.26,28.26,0,0,1-3.73.19H48.18l-.29.6h1.4l-3.14,5.6c-1.08,2-1.68,3.14-1.78,3.43a1.87,1.87,0,0,0,.17,1.91,2.62,2.62,0,0,0,2.11.73,4.65,4.65,0,0,0,2.94-1.14h0l-.39-.4Z"/><path class="cls-3" d="M51.82,90.34a1.45,1.45,0,0,0,1.28.58,3.05,3.05,0,0,0,1.73-.59A2.92,2.92,0,0,0,56,88.92a1.4,1.4,0,0,0-1.4-2,2.93,2.93,0,0,0-1.72.59,3.08,3.08,0,0,0-1.14,1.43A1.46,1.46,0,0,0,51.82,90.34Z"/><path class="cls-3" d="M65.74,93.23a6.46,6.46,0,0,0-4.52,2l-.57.55,0-.8A1.54,1.54,0,0,0,60.37,94a2.58,2.58,0,0,0-2.11-.73,4.72,4.72,0,0,0-3,1.14h0l.39.4h0a4,4,0,0,1,1.23-.71l.78-.27-3.27,5.9c-1.09,2-1.69,3.16-1.79,3.45a1.83,1.83,0,0,0,.17,1.91,2.6,2.6,0,0,0,2.11.73,4.67,4.67,0,0,0,2.94-1.13h0l-.39-.41h0a3.86,3.86,0,0,1-1.27.72l-.76.24,3.28-5.87a17.75,17.75,0,0,1,2.95-3.58,4.25,4.25,0,0,1,2.6-1.35,1,1,0,0,1,.88.31,1.13,1.13,0,0,1,0,1,33.13,33.13,0,0,1-1.95,3.71h0a29,29,0,0,0-1.92,3.73,2,2,0,0,0,0,1.88,2.44,2.44,0,0,0,2.11.73,5.31,5.31,0,0,0,1.91-.35,3.22,3.22,0,0,0,1.33-.79h0l-.38-.4h0a5.4,5.4,0,0,1-1.31.75l-.72.26.32-.69c.41-.88,1.05-2.05,2-3.58a29.14,29.14,0,0,0,2-3.76,3.16,3.16,0,0,0,0-2.93A3.07,3.07,0,0,0,65.74,93.23Z"/><path class="cls-3" d="M79.56,93.23a9.74,9.74,0,0,0-6.08,2.13,12.7,12.7,0,0,0-4.12,5.87,3.35,3.35,0,0,0,.19,3.34c.63.81,1.87,1.22,3.67,1.22a8.53,8.53,0,0,0,2.78-.46,9.63,9.63,0,0,0,2.14-1,10,10,0,0,0,1.6-1.37,7.14,7.14,0,0,0,1.09-1.34v0l-.4-.2-.26-.14a11.9,11.9,0,0,1-1.13,1.31,14.07,14.07,0,0,1-1.24,1.07,6.91,6.91,0,0,1-1.66.88,5.63,5.63,0,0,1-2,.38,1.6,1.6,0,0,1-1.44-.66,1.39,1.39,0,0,1-.19-.76,4.08,4.08,0,0,1,.27-1.21c.15-.4.36-.93.64-1.59l.08-.19h.21a15.35,15.35,0,0,0,5.85-1,5.33,5.33,0,0,0,3.1-3,2.35,2.35,0,0,0,0-2.21C82.17,93.56,81.16,93.23,79.56,93.23Zm1.93,3.27c-.73,2-3.09,3.06-7,3.16h-.52l.25-.46A12,12,0,0,1,77,95.63a4.92,4.92,0,0,1,2.89-1.38,1.72,1.72,0,0,1,1.6.64A1.84,1.84,0,0,1,81.49,96.51Z"/><path class="cls-3" d="M154,104.25a4,4,0,0,1-1.23.7l-.78.26.4-.72c2.61-4.65,5.49-9.82,8.81-15.81.17-.36.3-.64.36-.81a2,2,0,0,0-.1-2.05,2.58,2.58,0,0,0-2.11-.73,4.7,4.7,0,0,0-2.95,1.14h0l.39.41h0a4,4,0,0,1,1.22-.71l.79-.28-5.13,9.19-.26-.57a2.46,2.46,0,0,0-2.32-1,8.88,8.88,0,0,0-5.64,2.15,13.05,13.05,0,0,0-4,5.85,3.78,3.78,0,0,0,0,3.34c.51.81,1.53,1.22,3.06,1.22a6.14,6.14,0,0,0,4-1.75l.48-.42,0,.64a1.45,1.45,0,0,0,.29.82,2.63,2.63,0,0,0,2.18.72,4.67,4.67,0,0,0,2.94-1.14h0l-.39-.4Zm-4-2.85a20.11,20.11,0,0,1-1.77,1.84,6.74,6.74,0,0,1-1.49,1.12,3.16,3.16,0,0,1-1.5.44c-.45,0-.72-.18-.8-.53a4.22,4.22,0,0,1,.42-2c.18-.49.39-1,.62-1.49.15-.33.31-.66.48-1l0-.09A31.09,31.09,0,0,1,147.72,97h0c1.35-2,2.39-2.95,3.09-2.95,1,0,1.64.28,1.86.82a2.63,2.63,0,0,1,.07,1.73Z"/><path class="cls-3" d="M167.5,96.19a5.26,5.26,0,0,1-.36-1.85,6.6,6.6,0,0,1,.45-2.53v0h-.84l-.36.35a6.79,6.79,0,0,0-.86,1.07,6.72,6.72,0,0,0-.77,1.48v0l-.06,0a13.88,13.88,0,0,1-5.36,2.51h-.06l-.37,1,.21,0a12.42,12.42,0,0,0,4.89-2l.39-.26-.23,1.66a12.6,12.6,0,0,1-.62,2.67c-1,2.7-2.35,4.19-4.18,4.51a3.4,3.4,0,0,1-1.9-.77,3.08,3.08,0,0,0,1.88-.67,3.47,3.47,0,0,0,1.23-1.63A1.5,1.5,0,0,0,159,99.59a3.64,3.64,0,0,0-2,.62,3.85,3.85,0,0,0-1.48,2,2.36,2.36,0,0,0,.39,2.49c.61.73,1.73,1.08,3.43,1.08a9,9,0,0,0,4.85-1.48,7.38,7.38,0,0,0,3.15-3.72,6.81,6.81,0,0,0,.46-2.54A5.34,5.34,0,0,0,167.5,96.19Z"/><path class="cls-3" d="M44.56,99.61l.46-1H37.91l.16-.29c1.14-2.09,3.08-5.78,5.77-11l.09-.17s2-.06,3.79,0a23.19,23.19,0,0,1,3,.29l1.08-1.69a24.39,24.39,0,0,0-5.44-.47c-6.7,0-12.3.91-16.64,2.72s-7.27,4.45-8.49,7.8a4,4,0,0,0,.27,4c1,1.39,3,2.1,5.86,2.1h.51l.45-1.25h0c-.24,0-1.05,0-1.58,0a8.6,8.6,0,0,1-2.15-.44,3.1,3.1,0,0,1-1.95-1.44,3.92,3.92,0,0,1,.16-2.69c.89-2.46,3-4.54,6.18-6.16,2.4-1.21,6.59-1.94,9.68-2.34l.62-.08L33.15,98.66H31.28l-.46,1h1.82L30,104.5a19.41,19.41,0,0,1-2.85,4.3,4.88,4.88,0,0,1-3.25.91h0l-.24.67h0a13.14,13.14,0,0,0,6.47-1.94,14.18,14.18,0,0,0,5.33-5.34l1.94-3.5Z"/><path class="cls-3" d="M112,98.66h-7.11l.16-.29c1.14-2.09,3.08-5.78,5.77-11l.09-.17s2-.06,3.79,0a23.17,23.17,0,0,1,3,.29l1.08-1.69a24.39,24.39,0,0,0-5.44-.47c-6.7,0-12.3.91-16.64,2.72s-7.27,4.45-8.49,7.8a4,4,0,0,0,.27,4c1,1.39,3,2.1,5.86,2.1h.51l.45-1.25h0c-.24,0-1.05,0-1.58,0a8.6,8.6,0,0,1-2.15-.44,3.11,3.11,0,0,1-1.95-1.44,3.92,3.92,0,0,1,.16-2.69c.89-2.46,3-4.54,6.18-6.16,2.4-1.21,6.59-1.94,9.68-2.34l.62-.08-6.08,11.08H98.23l-.46,1h1.82l-2.65,4.89a19.42,19.42,0,0,1-2.85,4.3,4.88,4.88,0,0,1-3.25.91h0l-.24.67h0a13.14,13.14,0,0,0,6.47-1.94,14.18,14.18,0,0,0,5.33-5.34l1.94-3.5h7.17Z"/><path class="cls-3" d="M126.25,94.46a4,4,0,0,0-3.36-1.22,12.5,12.5,0,0,0-4.31.69,8.76,8.76,0,0,0-3.13,1.91,14.25,14.25,0,0,0-2.08,2.52,17.09,17.09,0,0,0-1.5,3.15,3.13,3.13,0,0,0,.23,3.07c.6.81,1.78,1.22,3.49,1.22a10.58,10.58,0,0,0,6.66-2.21,12.7,12.7,0,0,0,4.14-5.79A3.41,3.41,0,0,0,126.25,94.46Zm-6.56,8c-1.42,1.56-2.61,2.33-3.63,2.33a.88.88,0,0,1-.78-.33,2.45,2.45,0,0,1,.07-1.93,19.61,19.61,0,0,1,3.35-6c1.46-1.63,2.67-2.42,3.7-2.42a.87.87,0,0,1,.78.33c.27.38.21,1.13-.16,2.19A19.62,19.62,0,0,1,119.69,102.43Z"/><path class="cls-3" d="M141,94.46a4,4,0,0,0-3.36-1.22,12.5,12.5,0,0,0-4.31.69,8.76,8.76,0,0,0-3.13,1.91,14.25,14.25,0,0,0-2.08,2.52,17.09,17.09,0,0,0-1.5,3.15,3.13,3.13,0,0,0,.23,3.07c.6.81,1.78,1.22,3.49,1.22a10.58,10.58,0,0,0,6.66-2.21,12.7,12.7,0,0,0,4.14-5.79A3.41,3.41,0,0,0,141,94.46Zm-6.56,8c-1.42,1.56-2.61,2.33-3.63,2.33a.88.88,0,0,1-.78-.33,2.45,2.45,0,0,1,.07-1.93,19.62,19.62,0,0,1,3.35-6c1.46-1.63,2.67-2.42,3.7-2.42a.87.87,0,0,1,.78.33c.27.38.21,1.13-.16,2.19A19.62,19.62,0,0,1,134.45,102.43Z"/></svg>