<svg id="Layer_1" data-name="Layer 1" xmlns="http://www.w3.org/2000/svg" viewBox="0 0 192.56 34.1"><defs><style>.cls-1{fill:#e96d68;}.cls-2{fill:#71645a;}</style></defs><path class="cls-1" d="M110.64,7.79h-2.16a1.75,1.75,0,0,0-1.91,1.57,2,2,0,0,0,0,.43v2.33h4.06V16.3h-4.06V33.5h-5.49V16.29H98.8V12.11h2.29V9.44a6,6,0,0,1,5.68-6.31,6.12,6.12,0,0,1,.74,0h3.13Z"/><path class="cls-1" d="M130.55,13.29l-4.1,4.19a3.66,3.66,0,0,0-2.91-1.32c-1.69,0-3.6,1.27-3.6,4.06V33.5h-5.49v-22h5.37v2.14a7.43,7.43,0,0,1,5.53-2.37A6.44,6.44,0,0,1,130.55,13.29Z"/><path class="cls-1" d="M149.24,21.87V24.2H135.46c0,2.87,1.69,4.9,4.82,4.9a6.09,6.09,0,0,0,5-2.07l3.38,3.26a10.37,10.37,0,0,1-8.37,3.47c-5.25,0-10.19-2.37-10.19-11.29,0-7.19,3.89-11.25,9.59-11.25C145.78,11.22,149.24,15.64,149.24,21.87Zm-13.32-3.8a5.37,5.37,0,0,0-.46,2.37h8.33a5.21,5.21,0,0,0-.47-2.37,4.13,4.13,0,0,0-5.53-1.87A4.18,4.18,0,0,0,135.92,18.07Z"/><path class="cls-1" d="M169.37,13.8,166,17.22a7.55,7.55,0,0,0-5.11-1.48c-2.2,0-3.13,1-3.13,2.12s.63,1.73,2.28,1.9l3.47.34c4.36.42,6.55,2.7,6.55,6.47,0,4.86-4.14,7.19-9.34,7.19-3.47,0-6.55-.39-9.39-3.18l3.6-3.59a7.92,7.92,0,0,0,5.87,2.07c1.91,0,3.89-.63,3.89-2.28,0-1.1-.54-1.86-2.32-2l-3.47-.34c-4-.38-6.42-2.11-6.42-6.17,0-4.61,4-7,8.49-7C164.42,11.22,167.25,11.85,169.37,13.8Z"/><path class="cls-1" d="M187,33.5V20.18c0-3-1.9-4-3.64-4s-3.67,1-3.67,4V33.5h-5.5V3.39h5.5V13.5a7.05,7.05,0,0,1,5.37-2.28,7.2,7.2,0,0,1,5.2,1.94,8.2,8.2,0,0,1,2.24,6.26V33.5Z"/><path class="cls-2" d="M66,33.51H59.18V3.42H80V9.87H66v7.59H76.85v6.29H66Z"/><path class="cls-2" d="M90.33,33.51h-6.9V3.42h6.9Z"/><path class="cls-2" d="M41.49,2.87c7,0,12.07,4.87,12.07,11.58V33.51H46.67V14.64c0-3.45-2-5.59-5.18-5.59s-5.31,2.18-5.31,5.59V33.51h-6.9V14.45C29.32,7.74,34.44,2.87,41.49,2.87Z"/><path class="cls-2" d="M94.89,33.51V32l-.5,1h-.27l-.5-1v1.51h-.28v-2.1h.28l.64,1.27.63-1.27h.29v2.1Zm-2.51-1.87v1.84H92.1V31.64h-.58v-.26H93v.26Z"/><path class="cls-2" d="M15.6,26.69a5.24,5.24,0,0,1-3.52,1.19c-3.2,0-5.18-2.14-5.18-5.59V3.46H0V22.52C0,29.23,5.08,34.1,12.08,34.1a13.94,13.94,0,0,0,3.52-.46Z"/><path class="cls-1" d="M24.23,0c-4.1,1.73-6.89,6.88-6.89,11.8V33.07a11.12,11.12,0,0,0,6.89-10.23Z"/></svg>